<?xml version="1.0" standalone="no"?><!DOCTYPE svg PUBLIC "-//W3C//DTD SVG 1.1//EN" "http://www.w3.org/Graphics/SVG/1.1/DTD/svg11.dtd"><svg t="1592559046506" class="icon" viewBox="0 0 1024 1024" version="1.1" xmlns="http://www.w3.org/2000/svg" p-id="10961" xmlns:xlink="http://www.w3.org/1999/xlink" width="300" height="300"><defs><style type="text/css"></style></defs><path d="M851.748997 340.662997a36.571 36.571 0 0 1-25.783-62.537L933.849996 170.239998 825.965997 62.353999a36.571 36.571 0 0 1 0-51.564999 36.571 36.571 0 0 1 51.747999 0l133.668999 133.667999a36.571 36.571 0 0 1 10.606 25.782999 36.571 36.571 0 0 1-10.606 25.966L877.713996 329.142997a36.571 36.571 0 0 1-25.964999 11.52z m0 683.336993a36.571 36.571 0 0 1-25.783-62.353999L933.849996 853.759992 825.965997 745.873993a36.571 36.571 0 1 1 51.747999-51.017l133.851999 133.668999a36.571 36.571 0 0 1 10.605 25.965 36.571 36.571 0 0 1-10.605 25.782999l-133.851999 132.936999A36.571 36.571 0 0 1 851.749997 1023.99999z" p-id="10962" fill="#dbdbdb"></path><path d="M944.822996 892.342991h-91.428999a383.999996 383.999996 0 0 1-382.902997-382.719996 310.856997 310.856997 0 0 0-309.576997-309.759997H38.583005a36.571 36.571 0 0 1 0-73.142999h122.330998a383.999996 383.999996 0 0 1 382.719997 382.902996A310.856997 310.856997 0 0 0 853.210997 819.199992h91.428999a36.571 36.571 0 0 1 0 73.142999z" p-id="10963" fill="#dbdbdb"></path><path d="M160.914003 892.342991H38.583005a36.571 36.571 0 0 1 0-73.142999h122.330998a309.393997 309.393997 0 0 0 255.999998-136.593999 36.571 36.571 0 0 1 60.708999 40.96 382.719996 382.719996 0 0 1-316.708997 168.776998z m213.942998-337.919996H38.583005a36.571 36.571 0 0 1 0-73.143h336.273996a36.571 36.571 0 0 1 0 73.143zM567.770999 350.169997a36.571 36.571 0 0 1-20.661999-6.4 36.571 36.571 0 0 1-9.509-51.2A383.999996 383.999996 0 0 1 853.210997 126.719999h91.428999a36.571 36.571 0 0 1 0 73.142999h-91.428999a309.576997 309.576997 0 0 0-255.999998 134.582999 36.571 36.571 0 0 1-29.44 15.725z" p-id="10964" fill="#dbdbdb"></path></svg>