<?xml version="1.0" standalone="no"?><!DOCTYPE svg PUBLIC "-//W3C//DTD SVG 1.1//EN" "http://www.w3.org/Graphics/SVG/1.1/DTD/svg11.dtd"><svg t="1592558549162" class="icon" viewBox="0 0 1024 1024" version="1.1" xmlns="http://www.w3.org/2000/svg" p-id="6087" xmlns:xlink="http://www.w3.org/1999/xlink" width="300" height="300"><defs><style type="text/css"></style></defs><path d="M358.4 426.057143c0 82.285714 62.171429 149.942857 140.8 160.914286v184.685714c0 14.628571 12.8 27.428571 27.428571 27.428571s27.428571-12.8 27.428572-27.428571v-100.571429h45.714286c14.628571 0 27.428571-12.8 27.428571-27.428571s-12.8-27.428571-27.428571-27.428572h-45.714286V585.142857c73.142857-14.628571 129.828571-80.457143 129.828571-159.085714 0-89.6-73.142857-162.742857-162.742857-162.742857s-162.742857 73.142857-162.742857 162.742857z m162.742857-107.885714c60.342857 0 107.885714 47.542857 107.885714 107.885714 0 60.342857-47.542857 107.885714-107.885714 107.885714s-107.885714-47.542857-107.885714-107.885714c0-60.342857 47.542857-107.885714 107.885714-107.885714z" p-id="6088" fill="#dbdbdb"></path><path d="M864.914286 190.171429l-338.285715-109.714286c-5.485714-1.828571-10.971429-1.828571-16.457142 0l-338.285715 109.714286c-10.971429 3.657143-18.285714 14.628571-18.285714 25.6V643.657143c1.828571 14.628571 21.942857 142.628571 354.742857 298.057143 3.657143 1.828571 7.314286 1.828571 10.971429 1.828571s7.314286 0 10.971428-1.828571C861.257143 786.285714 883.2 658.285714 885.028571 643.657143V215.771429c-1.828571-10.971429-9.142857-21.942857-20.114285-25.6z m-36.571429 449.828571c-1.828571 9.142857-32.914286 113.371429-310.857143 246.857143-279.771429-133.485714-309.028571-237.714286-310.857143-246.857143V235.885714l310.857143-102.4 310.857143 102.4V640z" p-id="6089" fill="#dbdbdb"></path></svg>