<?xml version="1.0" standalone="no"?><!DOCTYPE svg PUBLIC "-//W3C//DTD SVG 1.1//EN" "http://www.w3.org/Graphics/SVG/1.1/DTD/svg11.dtd"><svg t="1592558800783" class="icon" viewBox="0 0 1024 1024" version="1.1" xmlns="http://www.w3.org/2000/svg" p-id="8485" xmlns:xlink="http://www.w3.org/1999/xlink" width="300" height="300"><defs><style type="text/css"></style></defs><path d="M49.984749 427.930447c24.23047-121.152348 92.075785-222.920321 193.843757-295.611729C437.672263-3.371912 704.207429 30.550745 859.282434 200.164033l-101.767972 4.846094 237.458602 218.074226-9.692188-324.688293-77.537502 82.383597C738.130086-17.910194 437.672263-61.525039 214.751942 93.549966 103.291782 171.087469 30.600373 287.393723 1.52381 418.238259c0 14.538282 4.846094 29.076564 19.384375 29.076564h4.846094c9.692188 0 19.384376-4.846094 24.23047-19.384376zM999.819158 573.313265c-14.538282-4.846094-24.23047 4.846094-29.076563 19.384376-24.23047 121.152348-92.075785 222.920321-193.843757 295.611729s-227.766414 101.767972-353.764857 77.537503c-101.767972-19.384376-193.843757-67.845315-266.535166-145.382818l101.767973-4.846094-237.458603-218.074226 9.692188 324.688293 77.537503-82.383597c77.537503 92.075785 184.151569 155.075006 305.303917 174.459381 29.076564 4.846094 62.999221 9.692188 92.075785 9.692188 106.614066 0 208.382039-33.922657 295.611729-92.075785 111.46016-77.537503 184.151569-193.843757 213.228133-324.688293 4.846094-19.384376 0-33.922657-14.538282-33.922657z" fill="#dbdbdb" p-id="8486"></path><path d="M844.744153 379.469508l-106.614067-106.614066 19.384376-19.384376c9.692188-9.692188 9.692188-19.384376 0-29.076564-9.692188-9.692188-19.384376-9.692188-29.076564 0L563.670705 389.161696 481.287108 476.391386c-77.537503-62.999221-188.997663-58.153127-256.842978 14.538282-33.922657 33.922657-53.307033 82.383597-53.307033 130.844536s19.384376 96.921879 53.307033 135.69063c38.768751 38.768751 87.229691 53.307033 135.69063 53.307033 48.460939 0 96.921879-19.384376 135.69063-53.307033 67.845315-67.845315 72.691409-179.305475 14.538282-251.996884L578.208987 437.622635l106.614066 106.614066c4.846094 4.846094 9.692188 4.846094 14.538282 4.846094 9.692188 0 14.538282 0 19.384375-4.846094 9.692188-9.692188 9.692188-19.384376 0-29.076563l-106.614066-106.614067 96.921879-106.614066 106.614066 106.614066c4.846094 4.846094 9.692188 4.846094 19.384376 4.846094s14.538282 0 14.538281-4.846094c0-9.692188 0-19.384376-4.846093-29.076563zM461.902732 728.388271c-53.307033 53.307033-155.075006 53.307033-208.382038 0-29.076564-29.076564-43.614845-62.999221-43.614846-106.614067s19.384376-77.537503 43.614846-106.614066c29.076564-29.076564 67.845315-43.614845 106.614066-43.614845s77.537503 14.538282 106.614066 43.614845c53.307033 58.153127 53.307033 150.228912-4.846094 213.228133z" fill="#dbdbdb" p-id="8487"></path></svg>