<?xml version="1.0" standalone="no"?><!DOCTYPE svg PUBLIC "-//W3C//DTD SVG 1.1//EN" "http://www.w3.org/Graphics/SVG/1.1/DTD/svg11.dtd"><svg t="1592559148427" class="icon" viewBox="0 0 1024 1024" version="1.1" xmlns="http://www.w3.org/2000/svg" p-id="11737" xmlns:xlink="http://www.w3.org/1999/xlink" width="300" height="300"><defs><style type="text/css"></style></defs><path d="M896.25 69.71H128.32c-35.37 0-64.04 28.67-64.04 64.04v767.93c0 35.37 28.67 64.04 64.04 64.04h767.93c35.37 0 64.04-28.67 64.04-64.04V133.75c0-35.37-28.67-64.04-64.04-64.04z m1.68 786.72c0 30.31-12.57 42.89-42.89 42.89H172.82c-30.31 0-42.89-12.57-42.89-42.89V174.21c0-30.31 12.57-42.89 42.89-42.89h682.22c30.31 0 42.89 12.57 42.89 42.89v682.22z" p-id="11738" fill="#dbdbdb"></path><path d="M734.79 708.71h-444c-17.6 0-32-14.4-32-32s14.4-32 32-32h444c17.6 0 32 14.4 32 32s-14.4 32-32 32zM734.79 835.71h-444c-17.6 0-32-14.4-32-32s14.4-32 32-32h444c17.6 0 32 14.4 32 32s-14.4 32-32 32zM526.81 529.87c26.82 0 50.43-6.79 70.82-20.37 20.39-13.58 30.59-30.24 30.59-50h72.67l0.82 2.02c1.37 31.43-15.67 59.31-51.12 83.66-35.45 24.36-76.71 36.53-123.79 36.53-64.6 0-113.93-17.28-148.01-51.85-34.08-34.56-51.12-77.99-51.12-130.29v-14.14c0-51.85 17.1-95.11 51.32-129.79 34.21-34.68 83.48-52.02 147.81-52.02 35.58 0 67.54 4.83 95.87 14.48s51.8 22.89 70.41 39.73l3.7 80.8h-64.46l-17.65-57.24c-9.59-7.63-21.9-13.8-36.95-18.52-15.06-4.71-32.02-7.07-50.91-7.07-42.43 0-72.74 12.52-90.94 37.54-18.21 25.03-27.3 55.72-27.3 92.08v14.14c0 37.26 9.03 68.29 27.1 93.09 18.06 24.82 48.44 37.22 91.14 37.22z" p-id="11739" fill="#dbdbdb"></path></svg>