<?xml version="1.0" standalone="no"?><!DOCTYPE svg PUBLIC "-//W3C//DTD SVG 1.1//EN" "http://www.w3.org/Graphics/SVG/1.1/DTD/svg11.dtd"><svg t="1592556594707" class="icon" viewBox="0 0 1024 1024" version="1.1" xmlns="http://www.w3.org/2000/svg" p-id="784" xmlns:xlink="http://www.w3.org/1999/xlink" width="256" height="256"><defs><style type="text/css"></style></defs><path d="M508.3138 601.805194c144.71787 0 241.111132-181.678006 241.111132-279.35105S748.96421 51.191323 508.3138 51.191323s-241.111132 173.640968-241.111131 271.314012 96.393261 279.555815 241.111131 279.35105z m321.686274 86.769293c-70.746408-35.629161-149.990577-69.159477-149.990576-69.159478L565.238551 819.061169l-16.995519-47.60793 31.380281-59.893848-62.914136-59.996231L453.74385 711.559391l31.73862 59.893848-20.476529 48.631757-111.853041-200.669987s-92.144382 38.956597-166.3718 77.606046c-52.21515 27.131401-118.303148 60.661718-133.09744 133.609353-24.930174 123.371089 103.662429 197.444933 437.99296 193.196053 362.588141-4.607219 449.511008-95.523009 460.721908-109.191092a99.413549 99.413549 0 0 0 18.224111-84.926405c-13.360935-73.561931-69.824965-105.505317-140.622565-141.134477z" fill="#dbdbdb" p-id="785"></path></svg>