<?xml version="1.0" standalone="no"?><!DOCTYPE svg PUBLIC "-//W3C//DTD SVG 1.1//EN" "http://www.w3.org/Graphics/SVG/1.1/DTD/svg11.dtd"><svg t="1592558898664" class="icon" viewBox="0 0 1024 1024" version="1.1" xmlns="http://www.w3.org/2000/svg" p-id="9295" xmlns:xlink="http://www.w3.org/1999/xlink" width="300" height="300"><defs><style type="text/css"></style></defs><path d="M581.753475 551.384615c34.639481 0 37.486562 38.672845 37.486562 50.535682 0 32.741427-13.76089 51.484708-37.486562 51.484708a31.555144 31.555144 0 0 1-30.606116-24.911956v-51.247451a32.504171 32.504171 0 0 1 30.606116-26.098239zM302.26506 500.137164l22.064875 75.92215h-42.706209l20.641334-75.92215z m-47.451344-92.055607l-94.902687 308.433735H246.272475l21.115848-74.973123h71.177015l23.725672 74.973123h89.920297l-97.037998-308.433735z m211.870251-15.658943v325.041705h71.177015l1.423541-17.082484a82.328082 82.328082 0 0 0 58.602409 21.827618 102.257646 102.257646 0 0 0 73.78684-31.317887 128.830399 128.830399 0 0 0 32.978684-91.81835 122.424467 122.424467 0 0 0-32.266914-89.445783 89.68304 89.68304 0 0 0-64.771084-26.335496 90.632067 90.632067 0 0 0-57.178869 18.031511v-109.138091zM209.02317 71.177016L169.164041 130.965709h638.220574v803.113994l63.110288-47.451343V71.177016zM170.350324 0h773.456905v921.979611l-134.050046 101.545876H80.192771V130.965709L170.350324 0z" p-id="9296" fill="#dbdbdb"></path></svg>