<?xml version="1.0" standalone="no"?><!DOCTYPE svg PUBLIC "-//W3C//DTD SVG 1.1//EN" "http://www.w3.org/Graphics/SVG/1.1/DTD/svg11.dtd"><svg t="1592555940344" class="icon" viewBox="0 0 1024 1024" version="1.1" xmlns="http://www.w3.org/2000/svg" p-id="1270" xmlns:xlink="http://www.w3.org/1999/xlink" width="256" height="256"><defs><style type="text/css"></style></defs><path d="M867.739995 564.424217c-40.364494 169.962423-187.794757 288.69018-358.513725 288.69018-109.495958 0-210.061761-50.982889-278.739541-132.486667-0.497471 19.844113-15.68068 36.181601-35.266935 36.800704-0.380705 0.013379-0.760194 0.013379-1.142116 0.013379-19.76262 0-36.095243-16.12585-36.693668-36.546494L152.81433 568.705631c-0.021894-0.999808 0.426925-1.845144 0.471929-2.829139 0.126496-2.649125 0.622751-5.098775 1.267396-7.634783 0.599641-2.267204 1.1409-4.43467 2.094487-6.534023 1.013187-2.211253 2.33775-4.113564 3.753536-6.111962 1.39146-1.930285 2.729402-3.747454 4.452914-5.38096 1.668779-1.60553 3.557709-2.814543 5.550027-4.112347 2.126111-1.352538 4.199922-2.562767 6.593621-3.477433 0.908584-0.335702 1.573906-1.055758 2.532359-1.324562 1.51674-0.450035 3.003072-0.126496 4.534407-0.380706 1.485116-0.237181 2.796299-0.986428 4.338582-1.028999 1.093464-0.110684 2.057998 0.423276 3.129568 0.451252 1.840278 0.097305 3.535816 0.380705 5.32136 0.760194 3.347288 0.633698 6.442799 1.56296 9.41303 3.155111 0.990077 0.535177 1.842711 1.19685 2.761026 1.815952 2.836437 1.90231 5.412584 3.931117 7.634783 6.576593 1.230907 1.409704 2.128544 2.972664 3.139299 4.563598 1.507009 2.408296 2.830356 4.789832 3.788808 7.521667 0.330837 0.929262 1.035081 1.60553 1.300237 2.562767 35.797247 129.766996 152.73946 220.412567 284.335787 220.412567 136.734025 0 254.798893-95.03767 287.135735-231.173269 4.801996-20.195627 24.506232-32.575239 44.392916-27.674723 19.717616 4.916329 31.785853 25.295618 26.983858 45.561791z m2.646692-157.00263a36.446757 36.446757 0 0 1-1.464438 7.436525c-0.689648 2.298828-1.49363 4.418858-2.577363 6.499966-1.111708 2.154087-2.408296 4.041801-3.901925 5.953842-1.479034 1.862172-3.014018 3.530951-4.801996 5.073232-1.787977 1.531335-3.674475 2.784136-5.731257 3.972472-2.184494 1.232123-4.350744 2.211253-6.748093 2.981178-1.139683 0.367326-2.054349 1.172524-3.252415 1.426733a37.681312 37.681312 0 0 1-7.521667 0.795467 0.184879 0.184879 0 0 0-0.042571 0.010947h-0.05595c-4.660903 0-9.08341-1.07157-13.279683-2.763459-1.421867-0.574099-2.606554-1.507009-3.94328-2.267203-2.591959-1.436463-5.013634-2.958068-7.212723-4.983226-1.280775-1.185903-2.280583-2.531143-3.378912-3.889762-1.745406-2.140707-3.268227-4.362907-4.521028-6.883104-0.859932-1.724729-1.479034-3.46527-2.084757-5.316495-0.40868-1.323346-1.195634-2.430189-1.48025-3.810702-28.616147-139.250572-150.216831-240.308981-289.162109-240.308981-136.212227 0-254.142085 94.611961-286.846253 230.07859-4.854297 20.209006-24.733683 32.651867-44.482923 27.519034C158.190424 423.939089 146.183003 403.496552 151.067708 383.29606 191.893184 214.119374 339.175057 95.954768 509.22627 95.954768c116.891128 0 223.78783 57.471907 292.120177 148.055447 5.91492-12.728694 18.323724-21.685607 32.985136-21.685607 20.266173 0 36.730157 16.886044 36.744753 37.695908v143.866472c0 1.2528-0.576531 2.313423-0.689649 3.534599z m-276.379897 20.118999h42.448035c20.281985 0 36.730157 16.886044 36.730157 37.694692 0 20.813512-16.448173 37.683745-36.730157 37.683745h-91.192912l-0.267588 20.958253h91.44712c20.279552 0 36.728941 16.886044 36.728941 37.716585 0 20.802566-16.449389 37.687394-36.728941 37.687394h-92.335027l-0.858715 70.799026c-0.238397 20.660257-16.647648 37.223979-36.737455 37.22398h-0.460982c-20.281985-0.267588-36.522168-17.337296-36.278906-38.137429l0.828308-69.869765h-100.45147c-20.290499 0-36.737455-16.888477-36.737455-37.701989 0-20.815945 16.446956-37.703206 36.737455-37.703206h101.371001l0.244478-20.943658h-101.600884c-20.294148 0-36.739888-16.884828-36.739887-37.700773 0-20.819594 16.44574-37.705639 36.739887-37.705639h51.403733l-66.068793-69.222687c-14.202863-14.858454-13.974196-38.744368 0.518148-53.292663 14.492345-14.560458 37.801727-14.341522 51.944991 0.531528l100.474579 105.2486 96.134783-104.720721c13.886622-15.217266 37.168029-15.872857 51.914583-1.598232 14.787908 14.270976 15.490936 38.121617 1.562959 53.29023l-64.039986 69.762729z" fill="#bfbfbf" p-id="1271"></path></svg>
