<?xml version="1.0" standalone="no"?><!DOCTYPE svg PUBLIC "-//W3C//DTD SVG 1.1//EN" "http://www.w3.org/Graphics/SVG/1.1/DTD/svg11.dtd"><svg t="1592557099728" class="icon" viewBox="0 0 1025 1024" version="1.1" xmlns="http://www.w3.org/2000/svg" p-id="3739" xmlns:xlink="http://www.w3.org/1999/xlink" width="256.25" height="256"><defs><style type="text/css"></style></defs><path d="M512.006281 761.863235c28.34556 0 264.91781-293.851233 264.91781-440.166377 0-146.310119-118.610204-264.920322-264.91781-264.920322-146.317656 0-264.922835 118.610204-264.922835 264.920322C247.083446 468.00949 484.685713 761.863235 512.006281 761.863235zM340.885318 312.419171c0-94.505298 76.608128-171.115938 171.120963-171.115938 94.502786 0 171.115938 76.61064 171.115938 171.115938 0 94.505298-76.613152 171.11845-171.115938 171.11845C417.493446 483.537621 340.885318 406.924469 340.885318 312.419171z" p-id="3740"></path><path d="M982.505396 559.389566c0-24.401349-19.846665-44.250527-44.248015-44.250527 0 0-118.115293 0-161.34334 0-3.366396 0-7.242777-0.178369-11.506041 6.973967-8.513968 14.289599-7.767834 13.033481-15.759257 26.260404-3.718109 6.152466 1.909299 8.237622 4.225581 8.237622 51.661623 0 184.388082 0 184.388082 0 1.477195 0 2.773509 1.301338 2.773509 2.773509l41.502141 363.588396c0 1.477195-1.296314 2.776021-2.776021 2.776021L44.255551 925.748958c-1.487244 0-2.776021-1.301338-2.776021-2.776021l41.494604-363.583371c0-1.477195 1.296314-2.773509 2.776021-2.773509 0 0 137.215824 0 182.956107 0 3.768354 0 9.734915-2.19067 2.949365-13.236972-7.961276-12.955602-4.87625-9.159613-13.312339-23.499457-3.140295-5.338502-7.494-4.743102-13.385194-4.743102-39.803869 0-159.207939 0-159.207939 0-24.3913 0-44.248015 19.849178-44.248015 44.250527L0 922.977962c0 24.401349 19.85169 44.248015 44.253039 44.248015l935.498946 0c24.406374 0 44.248015-19.846665 44.248015-44.248015L982.505396 559.389566z" p-id="3741"></path></svg>