<?xml version="1.0" standalone="no"?><!DOCTYPE svg PUBLIC "-//W3C//DTD SVG 1.1//EN" "http://www.w3.org/Graphics/SVG/1.1/DTD/svg11.dtd"><svg t="1592558636041" class="icon" viewBox="0 0 1251 1024" version="1.1" xmlns="http://www.w3.org/2000/svg" p-id="6876" xmlns:xlink="http://www.w3.org/1999/xlink" width="366.50390625" height="300"><defs><style type="text/css"></style></defs><path d="M967.509333 565.76a307.2 307.2 0 0 0-86.129777-58.936889c-35.84-15.530667-63.886222-20.707556-63.886223-33.621333 0-23.324444 25.543111-33.621333 48.526223-49.152 30.663111-20.650667 79.189333-67.185778 79.189333-147.342222 0-72.362667-35.726222-121.514667-94.492445-147.342223-15.36-7.793778-43.463111-18.090667-30.72-49.152 7.736889-20.650667 51.143111-15.473778 79.246223 0 66.389333 33.621333 112.412444 105.984 112.412444 196.494223 0 80.156444-35.783111 137.045333-94.549333 178.403555 58.026667 23.722667 104.903111 59.278222 138.581333 104.96a260.664889 260.664889 0 0 0-88.177778 5.688889z m-131.185777 76.8a367.502222 367.502222 0 0 0-271.758223-120.263111c-204.344889 0-370.403556 168.049778-370.403555 374.897778 0 18.090667-15.36 33.564444-33.223111 33.564444a34.019556 34.019556 0 0 1-33.223111-33.564444c0-193.934222 125.155556-356.807111 291.271111-416.256-71.566222-46.535111-117.532444-129.251556-117.532445-219.761778 0-144.782222 114.915556-261.12 257.991111-261.12s258.048 116.337778 258.048 261.12c0 93.070222-45.966222 173.226667-117.532444 219.761778a446.122667 446.122667 0 0 1 183.523555 121.742222 271.928889 271.928889 0 0 0-47.160888 39.936zM240.128 506.88c-79.189333 36.181333-176.241778 118.897778-173.681778 276.593778 0 18.090667-15.36 33.564444-33.223111 33.564444a34.019556 34.019556 0 0 1-33.223111-33.564444C0 625.777778 76.629333 509.383111 212.024889 452.494222 153.258667 413.752889 114.972444 354.247111 114.972444 274.204444c0-87.950222 45.966222-160.312889 112.412445-193.934222 28.103111-15.473778 71.509333-20.650667 79.189333 0 12.743111 31.061333-17.92 41.358222-33.223111 49.152-58.766222 25.827556-97.052444 74.979556-97.052444 147.342222 0 82.716444 45.966222 126.691556 79.189333 147.342223 25.543111 15.530667 48.526222 25.884444 48.526222 49.152 0 12.913778-28.103111 18.090667-63.886222 33.564444z m321.877333-49.152c107.292444 0 191.601778-87.893333 191.601778-193.877333S669.297778 69.859556 562.062222 69.859556c-104.675556 0-191.601778 85.333333-191.601778 193.934222 0 105.984 84.309333 193.877333 191.601778 193.877333zM1243.136 771.128889l3.925333-1.137778c2.616889 14.449778 4.152889 29.070222 4.494223 43.804445a279.210667 279.210667 0 0 1-4.551112 43.690666 29.240889 29.240889 0 0 1-26.965333 26.908445 47.217778 47.217778 0 0 0-47.274667 47.104 55.864889 55.864889 0 0 0 3.925334 17.92 33.564444 33.564444 0 0 1-11.832889 40.96l-56.32 30.264889a35.612444 35.612444 0 0 1-15.189333 3.356444 36.693333 36.693333 0 0 1-27.022223-11.207111 72.135111 72.135111 0 0 0-38.798222-23.552 73.216 73.216 0 0 0-38.286222 22.983111 36.693333 36.693333 0 0 1-40.561778 8.419556l-56.32-29.752889a34.133333 34.133333 0 0 1-12.913778-42.040889c2.275556-5.688889 3.640889-11.776 3.982223-17.92a47.217778 47.217778 0 0 0-47.331556-47.104 29.240889 29.240889 0 0 1-27.022222-26.908445 279.210667 279.210667 0 0 1-4.551111-43.747555c0.398222-14.620444 1.877333-29.297778 4.551111-43.690667a29.240889 29.240889 0 0 1 27.022222-26.908444 47.388444 47.388444 0 0 0 47.274667-47.104 55.864889 55.864889 0 0 0-3.925334-17.92 34.133333 34.133333 0 0 1 11.832889-40.96l56.32-30.833778a34.474667 34.474667 0 0 1 13.482667 0c9.955556 0.056889 19.512889 4.096 26.453333 11.207111 10.012444 10.979556 23.153778 18.659556 37.717334 21.902222 14.506667-3.072 27.648-10.524444 37.717333-21.333333a37.262222 37.262222 0 0 1 26.453333-10.638222 35.043556 35.043556 0 0 1 14.051556 0l56.32 30.264889a34.133333 34.133333 0 0 1 12.970666 42.097777 55.864889 55.864889 0 0 0-3.982222 17.863111 46.990222 46.990222 0 0 0 47.331556 47.104c14.449778 1.137778 25.941333 12.515556 27.022222 26.908445z m-41.130667 72.362667l0.568889-0.568889a205.482667 205.482667 0 0 0 0-28.615111 206.051556 206.051556 0 0 0 0-28.558223 88.405333 88.405333 0 0 1-64.455111-40.618666 87.722667 87.722667 0 0 1-8.704-75.434667l-38.855111-21.333333a155.306667 155.306667 0 0 1-16.327111 12.913777c-13.880889 10.808889-30.833778 17.066667-48.412445 17.92a85.788444 85.788444 0 0 1-48.981333-18.488888 155.249778 155.249778 0 0 1-16.327111-13.482667l-40.561778 22.471111c8.704 25.144889 5.518222 52.906667-8.704 75.434667s-37.888 37.489778-64.455111 40.618666a205.482667 205.482667 0 0 0 0 28.558223 207.701333 207.701333 0 0 0 0 28.615111c26.567111 3.128889 50.232889 18.033778 64.455111 40.561777 14.222222 22.584889 17.408 50.289778 8.704 75.491556l37.717334 20.707556c5.12-4.835556 10.638222-9.329778 16.327111-13.425778 14.108444-11.434667 31.459556-18.090667 49.550222-19.057778 18.375111 0.967111 35.953778 7.850667 50.119111 19.626667 5.575111 4.494222 10.808889 9.329778 15.758222 14.563555l39.424-21.845333a87.722667 87.722667 0 0 1 8.704-75.491556c14.222222-22.528 37.944889-37.432889 64.455111-40.561777z m-179.029333-114.346667c46.08 0 83.342222 37.091556 83.342222 82.944 0 45.795556-37.319111 82.944-83.342222 82.944a83.171556 83.171556 0 0 1-83.285333-82.944c0-45.852444 37.319111-83.000889 83.285333-83.000889z m0 125.553778a40.618667 40.618667 0 0 0 40.561778-40.391111 40.448 40.448 0 0 0-40.561778-40.391112 40.448 40.448 0 0 0-40.504889 40.391112c0 22.300444 18.147556 40.391111 40.504889 40.391111z" fill="#dbdbdb" p-id="6877"></path></svg>