<?xml version="1.0" standalone="no"?><!DOCTYPE svg PUBLIC "-//W3C//DTD SVG 1.1//EN" "http://www.w3.org/Graphics/SVG/1.1/DTD/svg11.dtd"><svg t="1589871070470" class="icon" viewBox="0 0 1820 1024" version="1.1" xmlns="http://www.w3.org/2000/svg" p-id="617" width="355.46875" height="200" xmlns:xlink="http://www.w3.org/1999/xlink"><defs><style type="text/css"></style></defs><path d="M909.653333 172.562963C722.270815 172.562963 569.837037 324.996741 569.837037 512.379259c0 187.382519 152.433778 339.816296 339.816296 339.816297 187.382519 0 339.816296-152.433778 339.816297-339.816297 0-187.382519-152.433778-339.816296-339.816297-339.816296z m0 631.087407c-160.616296 0-291.271111-130.654815-291.271111-291.271111 0-160.616296 130.654815-291.271111 291.271111-291.271111 160.616296 0 291.271111 130.654815 291.271111 291.271111 0 160.616296-130.654815 291.271111-291.271111 291.271111z m0 0" p-id="618" fill="#ffffff"></path><path d="M1007.568593 512.379259c13.425778 0 24.272593-10.875259 24.272592-24.272592s-10.846815-24.272593-24.272592-24.272593H933.925926v-11.482074l89.960296-93.961481c9.244444-9.709037 9.102222-25.078519-0.606815-34.322963-9.66163-9.225481-24.907852-8.884148-34.199703 0.843851l-77.065482 81.000297-81.607111-81.436445c-9.519407-9.490963-24.850963-9.443556-34.322963 0.047408-9.462519 9.490963-9.927111 24.850963-0.436148 34.322963l89.742222 89.979259v14.999704h-71.898074c-13.397333 0-24.272593 10.875259-24.272592 24.272592s10.875259 24.272593 24.272592 24.272593h71.898074v48.545185h-71.898074c-13.397333 0-24.272593 10.846815-24.272592 24.272593 0 13.425778 10.875259 24.272593 24.272592 24.272592h71.898074v72.163556c0 13.425778 10.875259 24.272593 24.272593 24.272592s24.272593-10.846815 24.272592-24.272592v-72.154074h73.642667c13.425778 0 24.272593-10.856296 24.272593-24.272593 0-13.425778-10.846815-24.272593-24.272593-24.272593H933.925926v-48.545185h73.642667z m0 0" p-id="619" fill="#ffffff"></path></svg>