<?xml version="1.0" standalone="no"?><!DOCTYPE svg PUBLIC "-//W3C//DTD SVG 1.1//EN" "http://www.w3.org/Graphics/SVG/1.1/DTD/svg11.dtd"><svg t="1592557723679" class="icon" viewBox="0 0 1024 1024" version="1.1" xmlns="http://www.w3.org/2000/svg" p-id="6031" xmlns:xlink="http://www.w3.org/1999/xlink" width="300" height="300"><defs><style type="text/css"></style></defs><path d="M850.377143 646.875429c-112.310857 0-228.022857-70.656-228.461714-146.066286a149.138286 149.138286 0 0 1 35.072-116.864 211.145143 211.145143 0 1 0-302.354286-13.238857h-0.292572c0.438857 0.438857 0.987429 0.877714 1.426286 1.316571 2.962286 3.309714 6.162286 6.619429 9.344 9.709714a168.758857 168.758857 0 0 1 37.357714 118.729143c0 75.410286-116.041143 146.285714-228.461714 146.285715-45.494857 0-82.523429 28.324571-82.523428 63.158857v62.866285a25.398857 25.398857 0 0 0 28.013714 21.284572H904.777143a25.270857 25.270857 0 0 0 27.904-21.284572v-62.848c0.237714-34.724571-36.790857-63.049143-82.304-63.049142z m-58.514286 358.747428h-561.371428a70.454857 70.454857 0 0 1 0-140.891428h561.170285a70.454857 70.454857 0 0 1 0.146286 140.873142z" fill="#dbdbdb" p-id="6032"></path></svg>