<?xml version="1.0" standalone="no"?><!DOCTYPE svg PUBLIC "-//W3C//DTD SVG 1.1//EN" "http://www.w3.org/Graphics/SVG/1.1/DTD/svg11.dtd"><svg t="1592559273975" class="icon" viewBox="0 0 1024 1024" version="1.1" xmlns="http://www.w3.org/2000/svg" p-id="12599" xmlns:xlink="http://www.w3.org/1999/xlink" width="300" height="300"><defs><style type="text/css"></style></defs><path d="M713.248 95.776h141.6v347.648h-64.736V159.552h-140.96V96.736H237.728v62.816H96.096v768.032h347.328V992H32V95.776h137.152V32h544.096v63.776z m141.6 624.832v65.664H719.36v-137.12h65.344v71.456h70.176zM235.84 237.728h416v64h-416v-64z m0 143.84h416v64h-416v-64zM752 992a240 240 0 1 1 0-480 240 240 0 0 1 0 480z m175.424-240a175.424 175.424 0 1 0-350.848 0 175.424 175.424 0 0 0 350.848 0z" fill="#dbdbdb" fill-opacity=".65" p-id="12600"></path></svg>