<?xml version="1.0" standalone="no"?><!DOCTYPE svg PUBLIC "-//W3C//DTD SVG 1.1//EN" "http://www.w3.org/Graphics/SVG/1.1/DTD/svg11.dtd"><svg t="1592556466713" class="icon" viewBox="0 0 1024 1024" version="1.1" xmlns="http://www.w3.org/2000/svg" p-id="2599" xmlns:xlink="http://www.w3.org/1999/xlink" width="256" height="256"><defs><style type="text/css"></style></defs><path d="M966.06374 981.031614l-304.262127-331.959555A381.313196 381.313196 0 0 0 768.034814 383.975426c0-102.547037-39.933444-199.001664-112.479202-271.496225S486.606425 0 384.059388 0 185.057724 39.933444 112.563164 112.479201 0.083963 281.428389 0.083963 383.975426s39.933444 199.001664 112.479201 271.496224S281.512351 767.950851 384.059388 767.950851a380.954819 380.954819 0 0 0 240.01024-84.21861l304.262127 331.908358a25.444772 25.444772 0 0 0 36.196083 1.587098 25.598362 25.598362 0 0 0 1.587099-36.144886zM51.229489 383.975426C51.229489 200.486369 200.519135 51.196723 384.008191 51.196723S716.786894 200.486369 716.786894 383.975426 567.497248 716.754128 384.008191 716.754128 51.229489 567.464482 51.229489 383.975426z" p-id="2600"></path></svg>