<?xml version="1.0" standalone="no"?><!DOCTYPE svg PUBLIC "-//W3C//DTD SVG 1.1//EN" "http://www.w3.org/Graphics/SVG/1.1/DTD/svg11.dtd"><svg t="1592558712664" class="icon" viewBox="0 0 1024 1024" version="1.1" xmlns="http://www.w3.org/2000/svg" p-id="7675" xmlns:xlink="http://www.w3.org/1999/xlink" width="300" height="300"><defs><style type="text/css"></style></defs><path d="M0 0h979.456v163.254857H0V0z m585.289143 816.274286a244.955429 244.955429 0 0 0 230.912 163.181714H0V816.274286h585.289143z m230.912-326.509715a244.297143 244.297143 0 0 0-182.491429 81.627429H0V408.137143h979.456v143.945143a243.931429 243.931429 0 0 0-163.254857-62.317715z m195.657143 213.942858a14.555429 14.555429 0 0 1 12.141714 13.970285v33.792c0 6.802286-5.12 12.653714-12.141714 14.043429l-46.08 8.777143a14.921143 14.921143 0 0 0-11.264 9.216 140.873143 140.873143 0 0 1-5.12 11.702857 13.750857 13.750857 0 0 0 1.097143 14.043428l26.112 37.010286a13.750857 13.750857 0 0 1-1.901715 18.066286l-25.161143 23.917714a15.725714 15.725714 0 0 1-19.017142 1.755429l-39.131429-24.722286a15.872 15.872 0 0 0-14.848-0.950857 151.552 151.552 0 0 1-12.361143 4.827428 14.628571 14.628571 0 0 0-9.728 10.678858l-9.289143 43.593142a14.921143 14.921143 0 0 1-14.774857 11.556572h-35.693714a14.921143 14.921143 0 0 1-14.774857-11.556572l-9.289143-43.593142a14.628571 14.628571 0 0 0-9.728-10.678858 157.988571 157.988571 0 0 1-12.288-4.827428 15.872 15.872 0 0 0-14.848 0.950857l-39.131429 24.722286a15.725714 15.725714 0 0 1-19.017143-1.755429l-25.234285-23.917714a13.750857 13.750857 0 0 1-1.901715-18.066286l26.038858-36.937143a13.750857 13.750857 0 0 0 1.097142-14.116571 135.168 135.168 0 0 1-5.12-11.702857 14.921143 14.921143 0 0 0-11.264-9.142857l-46.08-8.777143a14.555429 14.555429 0 0 1-12.141714-14.043429v-33.792c0-6.875429 5.12-12.726857 12.141714-14.043428l46.08-8.777143a14.921143 14.921143 0 0 0 11.264-9.216c1.536-3.949714 3.218286-7.899429 5.12-11.702857a13.750857 13.750857 0 0 0-1.097142-14.043429l-26.038858-37.010286a13.750857 13.750857 0 0 1 1.901715-18.066285l25.234285-23.917715a15.725714 15.725714 0 0 1 19.017143-1.755428l39.058286 24.722285c4.388571 2.706286 10.020571 3.145143 14.848 0.950858 4.022857-1.755429 8.045714-3.364571 12.288-4.827429a14.628571 14.628571 0 0 0 9.728-10.678857l9.289143-43.593143a14.921143 14.921143 0 0 1 14.848-11.556571h35.620571c7.241143 0 13.385143 4.827429 14.774857 11.556571l9.289143 43.593143a14.628571 14.628571 0 0 0 9.728 10.678857c4.169143 1.462857 8.338286 3.072 12.361143 4.827429 4.754286 2.194286 10.386286 1.755429 14.848-1.024l39.058286-24.649143a15.725714 15.725714 0 0 1 19.017143 1.755428l25.234285 23.917715c5.12 4.754286 5.851429 12.361143 1.901715 17.993142l-26.038857 37.083429a13.750857 13.750857 0 0 0-1.097143 14.043429c1.901714 3.803429 3.657143 7.68 5.12 11.702857a14.921143 14.921143 0 0 0 11.264 9.216l46.08 8.777143z m-135.314286 91.648c17.115429-16.091429 26.697143-37.961143 26.624-60.708572 0-40.96-30.573714-76.288-72.996571-84.260571-42.422857-7.972571-84.845714 13.531429-101.376 51.346285-16.530286 37.888-2.56 81.554286 33.353142 104.301715 35.986286 22.674286 83.894857 18.285714 114.468572-10.678857z" p-id="7676" fill="#dbdbdb"></path></svg>