<?xml version="1.0" standalone="no"?><!DOCTYPE svg PUBLIC "-//W3C//DTD SVG 1.1//EN" "http://www.w3.org/Graphics/SVG/1.1/DTD/svg11.dtd"><svg t="1592558211399" class="icon" viewBox="0 0 1024 1024" version="1.1" xmlns="http://www.w3.org/2000/svg" p-id="4053" xmlns:xlink="http://www.w3.org/1999/xlink" width="300" height="300"><defs><style type="text/css"></style></defs><path d="M1021.110406 742.26455c0-24.561552-13.003175-36.842328-37.564727-36.842328h-74.407055v-94.634215c0.361199-110.888183 7.946384-103.664198-101.858201-103.302998-78.741446 0.361199-157.482892 0-236.224338 0h-35.036332V321.467372c24.200353 0 46.955908 0.361199 69.711464 0 29.618342-0.361199 40.454321-10.47478 40.81552-39.731922 0.722399-63.209877 0.361199-126.780952 0-189.990829 0-25.64515-12.641975-39.009524-39.009524-39.009524h-192.880423c-24.561552 0-36.842328 12.280776-36.842328 37.203527 0.361199 64.293474 0.361199 128.586949 0 192.880424 0 26.728748 12.641975 38.648325 38.648325 38.287125 23.477954-0.361199 47.317108 0 70.433862 0v186.017637H171.208466c-47.317108 0-55.263492 7.946384-55.263492 54.902292v142.673722c-26.728748 0-49.484303 0.361199-72.601059 0-26.367549-0.361199-39.370723 12.641975-39.370723 38.287125-0.361199 64.293474 0 128.586949 0 192.880423 0 24.922751 13.364374 37.203527 37.564727 37.203527 64.293474 0.361199 128.586949 0 192.880423 0 26.367549 0 39.370723-14.086772 39.731923-39.009523 0.722399-63.209877 0.722399-126.780952 0-189.990829-0.361199-28.173545-13.003175-39.370723-41.17672-39.731923-23.477954-0.361199-46.955908 0-70.433862 0v-149.175308h325.440564V704.338624c-24.200353 0-45.149912-0.361199-66.099471 0-33.230335 0.361199-43.343915 10.11358-43.705115 42.260318-0.361199 61.40388-0.361199 122.80776 0 184.21164 0 31.424339 10.11358 41.899118 41.17672 41.899118 62.487478 0.361199 124.613757-0.361199 187.101235 0.361199 27.812346 0.361199 41.537919-14.086772 41.899118-40.093121 0.722399-63.209877 0.722399-126.780952 0-189.990829-0.361199-26.367549-14.809171-40.093122-42.621517-39.009524-22.755556 1.083598-45.511111 0.361199-69.711464 0.361199v-149.536508h325.440564V704.338624h-73.323456c-23.477954 0.361199-35.75873 12.280776-35.75873 35.397531-0.361199 66.099471-0.361199 132.560141 0 198.659612 0 22.033157 12.280776 33.952734 33.952733 34.313933 66.099471 0.361199 132.560141 0.361199 198.659612 0 23.116755 0 35.75873-12.641975 35.75873-35.75873 0.361199-64.293474 0.361199-129.309347 0.3612-194.68642zM227.555556 750.933333v176.987655H51.651499v-176.987655H227.555556z m373.118871 0.722399v176.265256h-176.987655v-176.265256h176.987655zM424.409171 275.233862v-176.987654h176.265256v176.987654h-176.265256zM975.238095 928.282187h-176.626455v-176.626455H975.238095V928.282187z" fill="#dbdbdb" p-id="4054"></path></svg>