<?xml version="1.0" standalone="no"?><!DOCTYPE svg PUBLIC "-//W3C//DTD SVG 1.1//EN" "http://www.w3.org/Graphics/SVG/1.1/DTD/svg11.dtd"><svg t="1592557968131" class="icon" viewBox="0 0 1024 1024" version="1.1" xmlns="http://www.w3.org/2000/svg" p-id="2526" xmlns:xlink="http://www.w3.org/1999/xlink" width="300" height="300"><defs><style type="text/css"></style></defs><path d="M0 789.333c0-129.621 105.067-234.666 234.667-234.666h170.645a64 64 0 0 1 64.021 64.021v170.645c0 129.622-105.066 234.667-234.666 234.667C105.045 1024 0 918.933 0 789.333z m85.333 0c0 82.475 67.03 149.334 149.334 149.334 82.474 0 149.333-67.03 149.333-149.334V640H234.667c-82.475 0-149.334 67.03-149.334 149.333zM1024 234.667c0 129.621-105.067 234.666-234.667 234.666H618.688a64 64 0 0 1-64.021-64.021V234.667C554.667 105.045 659.733 0 789.333 0 918.955 0 1024 105.067 1024 234.667z m-85.333 0c0-82.475-67.03-149.334-149.334-149.334C706.86 85.333 640 152.363 640 234.667V384h149.333c82.475 0 149.334-67.03 149.334-149.333zM0 234.667C0 105.067 105.045 0 234.667 0c129.6 0 234.666 105.045 234.666 234.667v170.645a64 64 0 0 1-64.021 64.021H234.667C105.067 469.333 0 364.288 0 234.667z m85.333 0C85.333 316.97 152.192 384 234.667 384H384V234.667c0-82.304-66.859-149.334-149.333-149.334-82.304 0-149.334 66.859-149.334 149.334z m920.704 518.613c9.899 0 18.027 8.107 17.963 18.048v36.096c0 9.963-8.128 18.07-18.027 18.07H984.32c-9.899 0-20.437 7.743-23.424 17.215l-12.416 30.23c-4.672 8.768-2.773 21.717 4.224 28.693l15.403 15.36c7.04 7.04 7.04 18.517 0 25.557l-25.6 25.536a18.09 18.09 0 0 1-25.515 0l-15.296-15.36c-6.997-7.04-19.947-8.917-28.693-4.202l-30.251 12.437c-9.45 2.944-17.237 13.461-17.237 23.403v21.589a18.133 18.133 0 0 1-18.07 18.048h-36.074a18.133 18.133 0 0 1-18.091-18.048v-21.59c0-9.94-7.723-20.458-17.237-23.402l-30.294-12.437c-8.746-4.694-21.632-2.816-28.586 4.181l-15.424 15.381a18.07 18.07 0 0 1-25.494 0l-25.557-25.536a18.133 18.133 0 0 1 0-25.557l15.36-15.36c7.04-6.976 8.917-19.925 4.267-28.693l-12.502-30.23c-2.944-9.472-13.461-17.216-23.381-17.28h-21.675a18.09 18.09 0 0 1-18.069-18.026v-36.075c0-9.963 8.107-18.07 18.09-18.07h21.654c9.92 0 20.48-7.743 23.403-17.237l12.458-30.25c4.694-8.768 2.774-21.654-4.266-28.715l-15.318-15.36a18.048 18.048 0 0 1 0-25.536l25.536-25.493a18.027 18.027 0 0 1 25.494 0l15.402 15.36c7.04 6.997 19.904 8.917 28.672 4.224l30.23-12.395c9.514-2.965 17.237-13.483 17.237-23.467v-21.653a18.133 18.133 0 0 1 18.09-18.07h36.075a18.133 18.133 0 0 1 18.07 18.07v21.675c0 9.941 7.786 20.48 17.237 23.402l30.187 12.438c8.768 4.693 21.696 2.773 28.693-4.224l15.403-15.36a18.048 18.048 0 0 1 25.536 0l25.557 25.536c7.04 6.997 7.04 18.474 0 25.536l-15.36 15.36c-7.04 7.04-8.917 19.946-4.245 28.672l12.416 30.25c2.986 9.494 13.482 17.238 23.402 17.238h21.718z m-136.064 34.645a82.048 82.048 0 1 0-164.117 0 82.048 82.048 0 0 0 82.07 82.027 82.027 82.027 0 0 0 82.047-82.027z" p-id="2527"></path></svg>