<?xml version="1.0" standalone="no"?><!DOCTYPE svg PUBLIC "-//W3C//DTD SVG 1.1//EN" "http://www.w3.org/Graphics/SVG/1.1/DTD/svg11.dtd"><svg t="1592557830973" class="icon" viewBox="0 0 1024 1024" version="1.1" xmlns="http://www.w3.org/2000/svg" p-id="1773" xmlns:xlink="http://www.w3.org/1999/xlink" width="300" height="300"><defs><style type="text/css"></style></defs><path d="M591.36 739.84l161.28 161.28c23.04 23.04 23.04 58.88 0 79.36-23.04 23.04-58.88 23.04-79.36 0L512 819.2c-15.36-15.36-20.48-40.96-12.8-61.44C445.44 803.84 378.88 832 304.64 832 138.24 832 2.56 696.32 2.56 529.92S135.68 230.4 302.08 230.4s302.08 135.68 302.08 302.08c0 74.24-28.16 143.36-74.24 194.56 20.48-7.68 43.52-2.56 61.44 12.8z m-291.84-384c-97.28 0-174.08 79.36-174.08 174.08C125.44 627.2 204.8 704 299.52 704S473.6 624.64 473.6 529.92c0-97.28-79.36-174.08-174.08-174.08zM320 25.6h640c20.48 0 38.4 17.92 38.4 38.4s-17.92 38.4-38.4 38.4H320c-20.48 0-38.4-17.92-38.4-38.4s17.92-38.4 38.4-38.4z m307.2 204.8H960c20.48 0 38.4 17.92 38.4 38.4s-17.92 38.4-38.4 38.4H627.2c-20.48 0-38.4-17.92-38.4-38.4s17.92-38.4 38.4-38.4z m102.4 204.8H960c20.48 0 38.4 17.92 38.4 38.4S980.48 512 960 512H729.6c-20.48 0-38.4-17.92-38.4-38.4s17.92-38.4 38.4-38.4z m0 204.8H960c20.48 0 38.4 17.92 38.4 38.4s-17.92 38.4-38.4 38.4H729.6c-20.48 0-38.4-17.92-38.4-38.4s17.92-38.4 38.4-38.4z" p-id="1774"></path></svg>