<?xml version="1.0" standalone="no"?><!DOCTYPE svg PUBLIC "-//W3C//DTD SVG 1.1//EN" "http://www.w3.org/Graphics/SVG/1.1/DTD/svg11.dtd"><svg t="1592559772008" class="icon" viewBox="0 0 1024 1024" version="1.1" xmlns="http://www.w3.org/2000/svg" p-id="1319" xmlns:xlink="http://www.w3.org/1999/xlink" width="300" height="300"><defs><style type="text/css"></style></defs><path d="M657.821261 886.728128c-13.847601-19.266228-18.543744-40.82032-18.543745-40.82032s0-11.559737 1.565381-31.548448c11.559737-5.418627 2.287865-25.407338 2.287865-25.407337s2.287865-13.847601-4.575729-21.554093c3.130762-4.575729-4.575729-13.847601-4.575729-13.847601s-7.706491-62.374412-9.271872-104.037629c11.559737-23.119473 7.706491-37.809972-1.565381-56.233302-8.428975-31.548448-8.428975-73.934149-8.428975-73.934149s6.14111-1.565381 0-16.978363l6.984008-3.853245s-0.722484-3.853246-6.14111-17.700847c24.684854 6.984008 12.28222-33.113829 12.28222-33.113829s11.559737-9.271872 9.994355-52.380056c20.831609-4.575729 17.700847-21.554092 17.700847-21.554092s4.575729-5.418627 3.130762-8.428975l0.722484-6.14111s1.565381-3.130762 1.565381-7.706491c0.722484-3.130762-9.994356-21.554092-9.994356-21.554092s3.130762 0 3.130762-3.130762c-0.722484-18.543744-23.841957-50.092192-23.841957-50.092192s3.130762 0 3.130762-3.130762-4.575729-5.418627-4.575729-5.418627l30.103481-33.113829 4.575729 0.722484 19.988711-22.39699-8.428974-6.984007-23.841957 21.554092 3.130762 3.130762L627.356538 256.481656s4.575729-11.559737-18.543744-21.554093c0 0 3.130762-8.428975-13.847601-9.994355-0.722484-5.418627-13.847601-8.428975-19.988711-7.706491 3.853246-3.853246 4.575729-9.994356-5.418627-10.837253 3.130762-4.575729-5.418627-8.428975-5.418626-8.428975 6.14111-6.984008-3.853246-20.831609-3.853246-20.831608 9.271872-5.418627 16.978363-13.847601 14.690499-15.412983 3.853246-5.418627-6.14111-46.96143-6.14111-46.96143S562.33302 73.693321 512.963311 73.693321c-40.097836 6.984008-40.097836 36.244591-53.945437 80.918156 6.14111 18.543744 26.250235 17.700847 27.695202 16.978363 1.565381 0 4.575729 6.14111 1.565381 6.984008-3.130762 0.722484-11.559737 6.984008-11.559736 6.984007s-3.853246 13.847601-4.575729 27.695202c-58.521167-0.722484-120.173095 104.037629-120.173095 104.03763s-23.841957 9.994356-21.554093 24.684854c0 3.130762-3.853246 4.575729-3.853245 4.575729s0 6.984008 4.575729 7.706491c-5.418627-18.543744 40.82032 94.043274 104.760113 122.581374-5.418627 5.418627-6.984008 20.831609-6.984008 20.831608s-2.287865 4.575729-6.984007 14.690499c0 5.418627 6.984008 3.853246 6.984007 3.853245-1.565381 77.064911-13.125118 127.879586-13.125117 127.879586s3.853246 6.984008 9.271872 9.994356c-3.130762 1.565381-1.565381 13.125118-1.565381 13.125118s-19.988711 17.700847-13.125118 53.945437c-4.575729 24.684854-2.287865 36.244591-0.722483 59.364064-15.412982 22.39699-3.130762 29.260583-3.130762 29.260583s-1.565381 2.287865-4.575729 1.565381c4.575729 6.14111 0.722484 9.271872 0.722483 9.271872l5.418627 14.690499s-3.130762 6.14111 0.722483 19.988711c-5.418627 13.125118-16.135466 42.385701-16.135466 42.385701s-4.575729 2.287865-5.418626 6.984007c-11.559737 5.418627-9.994356 31.548448-9.994356 31.548448s0 10.837253 4.575729 13.847601c3.853246 3.130762 24.684854 0 24.684855 0s28.5381-6.984008 26.972718-36.24459c29.260583-13.125118 24.684854-18.543744 24.684854-18.543745-2.287865-12.28222-0.722484-22.39699-9.271872-37.809971l3.853246-32.391346s-2.287865-1.565381 16.978363-6.984007c4.575729-22.39699 13.847601-30.103481 13.847601-30.103481l10.837253-171.830668s12.28222-43.951082 16.978363-60.086547c4.575729-0.722484 8.428975 11.559737 8.428975 11.559736s-0.722484 9.994356 3.130762 16.135466c0 0 0.722484 11.559737 4.575729 18.543744 0 0 11.559737 37.809972 19.266228 57.0762C570.761994 732.598307 567.631232 793.527752 567.631232 793.527752c14.690499 6.984008 9.994356 28.5381 25.407338 26.972718 1.565381 3.130762 3.853246 11.559737 5.418627 13.847601-4.575729 7.706491 1.565381 18.543744 1.565381 18.543745s-9.271872 30.825964-6.984008 40.097836c6.14111 14.690499 21.554092 12.28222 21.554092 12.28222s16.978363 3.853246 15.412982 19.266228c40.82032 23.841957 55.510818 9.271872 55.510819 9.271872V925.983067c1.565381-18.42333-27.695202-39.254939-27.695202-39.254939zM418.920038 418.197554s-2.287865-1.565381-5.418627-1.565381c-30.103481-20.831609-31.548448-43.951082-31.548448-43.951082s8.428975-3.130762 17.700847-21.554092c8.428975 48.526811 22.39699 36.967074 22.39699 36.967074s5.418627 3.130762 5.418626 12.282221c-10.11477 6.261524-8.549389 17.821261-8.549388 17.82126z m0 0" p-id="1320" fill="#dbdbdb"></path><path d="M272.857949 857.347131c-11.439323-15.894638-15.172154-33.595484-15.172154-33.595485s0-9.5127 1.324553-26.009407c9.5127-4.455315 1.926623-20.952023 1.926623-20.952023s1.926623-11.439323-3.853246-17.82126c2.528692-3.853246-3.853246-11.439323-3.853245-11.439323s-6.381938-51.416745-7.586077-85.734713c9.5127-19.0254 6.381938-31.066792-1.324554-46.35936-6.984008-26.009407-6.984008-60.929445-6.984007-60.929445s5.057385-1.324553 0-13.968015l5.659454-3.130762s-0.60207-3.130762-5.057384-14.570085c20.349953 5.659454 10.11477-27.33396 10.114769-27.33396s9.5127-7.586077 8.308561-43.108185C273.460019 448.662277 270.931326 434.694262 270.931326 434.694262s3.853246-4.455315 2.528693-6.984008l0.602069-5.057385s1.324553-2.528692 1.324554-6.381938c0.60207-2.528692-8.308561-17.821261-8.308561-17.82126s2.528692 0 2.528692-2.528693c-0.60207-15.292568-19.627469-41.301976-19.627469-41.301975s2.528692 0 2.528692-2.528693-3.853246-4.455315-3.853245-4.455315l24.805268-27.33396 3.853245 0.602069 16.496708-18.42333-6.984008-5.659454-19.627469 17.82126 2.528692 2.528693-22.156162 20.952022s3.853246-9.5127-15.292568-17.82126c0 0 2.528692-6.984008-11.439322-8.308561-0.60207-4.455315-11.439323-6.984008-16.496708-6.381938 3.130762-3.130762 3.853246-8.308561-4.455315-8.91063 2.528692-3.853246-4.455315-6.984008-4.455315-6.984008 5.057385-5.659454-3.130762-17.098777-3.130762-17.098777 7.586077-4.455315 13.968015-11.439323 12.041392-12.643462 3.130762-4.455315-5.057385-38.652869-5.057385-38.652869s-5.057385-33.595484-45.636876-33.595484c-32.993415 5.659454-32.993415 29.862653-44.432738 66.588899 5.057385 15.172154 21.554092 14.570085 22.878645 13.968015 1.324553 0 3.853246 5.057385 1.324554 5.659455s-9.5127 5.659454-9.5127 5.659454-3.130762 11.439323-3.853246 22.878645c-48.285983-0.60207-98.980245 85.614299-98.980244 85.614299s-19.627469 8.308561-17.821261 20.349953c0 2.528692-3.130762 3.853246-3.130762 3.853246s0 5.659454 3.853245 6.381938C-0.481656 403.507056 37.569144 496.105362 90.310442 519.586077c-4.455315 4.455315-5.659454 17.098777-5.659454 17.098777s-1.926623 3.853246-5.659455 12.041392c0 4.455315 5.659454 3.130762 5.659455 3.130762-1.324553 63.458137-10.837253 105.362183-10.837253 105.362183s3.130762 5.659454 7.586077 8.308561c-2.528692 1.324553-1.324553 10.837253-1.324553 10.837253s-16.496707 14.570085-10.837253 44.432737c-3.853246 20.349953-1.926623 29.862653-0.60207 48.888053-12.643462 18.42333-2.528692 24.082785-2.528692 24.082784s-1.324553 1.926623-3.853246 1.324554c3.853246 5.057385 0.60207 7.586077 0.60207 7.586077l4.455315 12.041392s-2.528692 5.057385 0.602069 16.496708c-4.455315 10.837253-13.365945 34.920038-13.365945 34.920037s-3.853246 1.926623-4.455315 5.659455c-9.5127 4.455315-8.308561 26.009407-8.308561 26.009407s0 8.91063 3.853246 11.439323c3.130762 2.528692 20.349953 0 20.349953 0s23.480715-5.659454 22.156162-29.862653c24.082785-10.837253 20.349953-15.292568 20.349952-15.292569-1.926623-10.11477-0.60207-18.42333-7.586077-31.066792l3.130762-26.611477s-1.926623-1.324553 13.968015-5.659454c3.853246-18.42333 11.439323-24.805268 11.439323-24.805268l8.91063-141.486359s10.11477-36.124177 13.968015-49.490123c3.853246-0.60207 6.984008 9.5127 6.984008 9.5127s-0.60207 8.308561 2.528692 13.365946c0 0 0.60207 9.5127 3.853246 15.172154 0 0 9.5127 31.066792 15.894638 46.96143 19.627469 60.327375 17.098777 110.419567 17.098777 110.419567 12.041392 5.659454 8.308561 23.480715 20.952022 22.156162 1.324553 2.528692 3.130762 9.5127 4.455315 11.439323-3.853246 6.381938 1.324553 15.172154 1.324554 15.172154s-7.586077 25.407338-5.659455 32.993415c5.057385 12.041392 17.821261 10.11477 17.821261 10.114769s13.968015 3.130762 12.643462 15.894638c33.595484 19.627469 45.636877 7.586077 45.636876 7.586077v-6.381938c1.083725-14.810913-22.999059-32.030103-22.999059-32.030103zM76.101599 471.540922s-1.926623-1.324553-4.455315-1.324553c-24.805268-17.098777-26.009407-36.124177-26.009407-36.124177s6.984008-2.528692 14.570084-17.821261c6.984008 39.977422 18.42333 30.464722 18.423331 30.464723s4.455315 2.528692 4.455315 10.114769c-8.188147 5.177799-6.984008 14.690499-6.984008 14.690499z m0 0" p-id="1321" fill="#dbdbdb"></path><path d="M989.32079 857.347131c-11.439323-15.894638-15.172154-33.595484-15.172154-33.595485s0-9.5127 1.324553-26.009407c9.5127-4.455315 1.926623-20.952023 1.926623-20.952023s1.926623-11.439323-3.853246-17.82126c2.528692-3.853246-3.853246-11.439323-3.853245-11.439323s-6.381938-51.416745-7.586077-85.734713c9.5127-19.0254 6.381938-31.066792-1.324554-46.35936-6.984008-26.009407-6.984008-60.929445-6.984007-60.929445s5.057385-1.324553 0-13.968015l5.659454-3.130762s-0.60207-3.130762-5.057384-14.570085c20.349953 5.659454 10.11477-27.33396 10.114769-27.33396s9.5127-7.586077 8.308561-43.108185C989.92286 448.662277 987.394167 434.694262 987.394167 434.694262s3.853246-4.455315 2.528693-6.984008l0.602069-5.057385s1.324553-2.528692 1.324554-6.381938c0.60207-2.528692-8.308561-17.821261-8.308561-17.82126s2.528692 0 2.528692-2.528693c-0.60207-15.292568-19.627469-41.301976-19.627469-41.301975s2.528692 0 2.528692-2.528693-3.853246-4.455315-3.853245-4.455315l24.805268-27.33396 3.853245 0.602069 16.496708-18.42333-6.984008-5.659454-19.627469 17.82126 2.528692 2.528693-22.156162 20.952022s3.853246-9.5127-15.292568-17.82126c0 0 2.528692-6.984008-11.439322-8.308561-0.60207-4.455315-11.439323-6.984008-16.496708-6.381938 3.130762-3.130762 3.853246-8.308561-4.455315-8.91063 2.528692-3.853246-4.455315-6.984008-4.455315-6.984008 5.057385-5.659454-3.130762-17.098777-3.130762-17.098777 7.586077-4.455315 13.968015-11.439323 12.041392-12.643462 3.130762-4.455315-5.057385-38.652869-5.057385-38.652869s-5.057385-33.595484-45.636876-33.595484c-32.993415 5.659454-32.993415 29.862653-44.432738 66.588899 5.057385 15.172154 21.554092 14.570085 22.878645 13.968015 1.324553 0 3.853246 5.057385 1.324554 5.659455s-9.5127 5.659454-9.5127 5.659454-3.130762 11.439323-3.853246 22.878645c-48.285983-0.60207-98.980245 85.614299-98.980244 85.614299s-19.627469 8.308561-17.821261 20.349953c0 2.528692-3.130762 3.853246-3.130762 3.853246s0 5.659454 3.853245 6.381938c-4.455315-15.172154 33.595484 77.426152 86.336783 100.906867-4.455315 4.455315-5.659454 17.098777-5.659454 17.098777s-1.926623 3.853246-5.659455 12.041392c0 4.455315 5.659454 3.130762 5.659455 3.130762-1.324553 63.458137-10.837253 105.362183-10.837253 105.362183s3.130762 5.659454 7.586077 8.308561c-2.528692 1.324553-1.324553 10.837253-1.324553 10.837253s-16.496707 14.570085-10.837253 44.432737c-3.853246 20.349953-1.926623 29.862653-0.60207 48.888053-12.643462 18.42333-2.528692 24.082785-2.528692 24.082784s-1.324553 1.926623-3.853246 1.324554c3.853246 5.057385 0.60207 7.586077 0.60207 7.586077l4.455315 12.041392s-2.528692 5.057385 0.60207 16.496708c-4.455315 10.837253-13.365945 34.920038-13.365946 34.920037s-3.853246 1.926623-4.455315 5.659455c-9.5127 4.455315-8.308561 26.009407-8.308561 26.009407s0 8.91063 3.853246 11.439323c3.130762 2.528692 20.349953 0 20.349953 0s23.480715-5.659454 22.156162-29.862653c24.082785-10.837253 20.349953-15.292568 20.349953-15.292569-1.926623-10.11477-0.60207-18.42333-7.586078-31.066792l3.130762-26.611477s-1.926623-1.324553 13.968015-5.659454c3.853246-18.42333 11.439323-24.805268 11.439323-24.805268l8.91063-141.486359s10.11477-36.124177 13.968015-49.490123c3.853246-0.60207 6.984008 9.5127 6.984008 9.5127s-0.60207 8.308561 2.528692 13.365946c0 0 0.60207 9.5127 3.853246 15.172154 0 0 9.5127 31.066792 15.894638 46.96143 19.627469 60.327375 17.098777 110.419567 17.098777 110.419567 12.041392 5.659454 8.308561 23.480715 20.952022 22.156162 1.324553 2.528692 3.130762 9.5127 4.455315 11.439323-3.853246 6.381938 1.324553 15.172154 1.324554 15.172154s-7.586077 25.407338-5.659455 32.993415c5.057385 12.041392 17.821261 10.11477 17.821261 10.114769s13.968015 3.130762 12.643462 15.894638c33.595484 19.627469 45.636877 7.586077 45.636876 7.586077v-6.381938c1.083725-14.810913-22.999059-32.030103-22.999059-32.030103zM792.56444 471.540922s-1.926623-1.324553-4.455315-1.324553c-24.805268-17.098777-26.009407-36.124177-26.009407-36.124177s6.984008-2.528692 14.570084-17.821261c6.984008 39.977422 18.42333 30.464722 18.423331 30.464723s4.455315 2.528692 4.455315 10.114769c-8.188147 5.177799-6.984008 14.690499-6.984008 14.690499z m0 0" p-id="1322" fill="#dbdbdb"></path></svg>