<?xml version="1.0" standalone="no"?><!DOCTYPE svg PUBLIC "-//W3C//DTD SVG 1.1//EN" "http://www.w3.org/Graphics/SVG/1.1/DTD/svg11.dtd"><svg t="1592557536473" class="icon" viewBox="0 0 1024 1024" version="1.1" xmlns="http://www.w3.org/2000/svg" p-id="5059" xmlns:xlink="http://www.w3.org/1999/xlink" width="300" height="300"><defs><style type="text/css"></style></defs><path d="M592.327111 625.265778c13.880889 0 27.704889 13.824 27.704889 27.704889 0 13.824-13.824 27.704889-27.704889 27.704889H453.859556v96.938666c0 13.880889-13.880889 27.704889-27.704889 27.704889-13.880889 0-27.704889-13.824-27.704889-27.704889v-95.175111H259.925333c-13.880889 0-27.704889-13.880889-27.704889-27.704889 0-13.880889 13.824-27.704889 27.704889-27.704889h138.524445v-77.937777H259.925333c-13.880889 0-27.704889-13.880889-27.704889-27.704889 0-13.880889 13.824-27.704889 27.704889-27.704889h145.408l-6.883555-6.940445-110.819556-131.584c-13.880889-6.940444-13.880889-27.704889 0-41.528889 13.824-13.880889 34.645333-6.940444 41.528889 6.883556l96.995556 110.819556 96.938666-110.819556c13.824-13.824 27.704889-13.824 41.528889-6.883556 13.880889 13.824 13.880889 27.704889 6.940445 41.528889L460.8 486.741333l-5.802667 6.940445h137.386667c13.880889 0 27.704889 13.824 27.704889 27.704889 0 13.824-13.824 27.704889-27.704889 27.704889H453.859556v76.174222h138.467555z m69.518222-239.104s11.377778-194.958222 185.457778-235.121778V75.605333l124.472889 124.928-123.960889 123.904v-75.662222s-112.583111-14.904889-186.026667 137.386667z m209.92 58.197333c0.056889-17.180444 13.880889-31.004444 30.72-31.004444 16.839111 0 30.606222 13.824 30.72 30.833777v376.263112c0 94.435556-64.284444 143.530667-142.791111 143.530666H204.344889c-69.632 0-142.791111-49.834667-142.791111-166.855111V198.769778c0-87.04 89.770667-120.263111 142.791111-120.263111h410.168889c16.896 0 30.606222 13.880889 30.606222 30.947555 0 17.066667-13.710222 30.890667-30.663111 30.890667H209.009778c-21.731556 0-86.072889-2.161778-86.072889 86.357333v565.703111c7.054222 71.281778 47.274667 109.624889 86.072889 109.624889h576.739555c27.648 0 86.016-27.192889 86.016-86.300444V444.302222z" fill="#999999" p-id="5060"></path></svg>