<?xml version="1.0" standalone="no"?><!DOCTYPE svg PUBLIC "-//W3C//DTD SVG 1.1//EN" "http://www.w3.org/Graphics/SVG/1.1/DTD/svg11.dtd"><svg t="1592558103084" class="icon" viewBox="0 0 1024 1024" version="1.1" xmlns="http://www.w3.org/2000/svg" p-id="3290" xmlns:xlink="http://www.w3.org/1999/xlink" width="300" height="300"><defs><style type="text/css"></style></defs><path d="M463.872 566.272c-139.264 0-252.416-113.152-252.416-252.416S324.608 61.44 463.872 61.44c139.264 0 252.416 113.152 252.416 252.416 0 34.816-7.168 68.608-20.992 100.864-5.12 11.776-16.384 18.944-29.184 18.944-4.608 0-9.216-1.024-13.312-3.072-7.68-3.072-13.824-9.728-16.896-17.92-3.072-8.192-2.56-16.896 1.024-24.576 10.24-23.552 15.872-49.152 15.872-74.752 0-103.936-84.48-187.904-187.904-187.904S275.968 209.408 275.968 313.344c0 103.936 84.48 187.904 187.904 187.904 17.92 0 32.256 14.336 32.256 32.256s-14.336 32.768-32.256 32.768z" p-id="3291"></path><path d="M781.312 960c-20.992 0-40.448-10.24-53.248-28.16l-16.896-24.064c-1.024-2.048-3.072-3.072-5.12-3.072s-4.096 1.024-5.632 3.072l-16.896 24.064c-12.288 17.92-31.744 28.16-52.736 28.16-8.704 0-17.408-1.536-26.112-5.12-29.184-11.776-45.568-41.472-40.448-72.192l4.608-28.672c0.512-2.56 0-4.608-2.56-6.656-0.512-0.512-2.048-2.048-5.12-2.048h-1.024l-28.672 5.12c-4.096 0.512-8.192 1.024-12.288 1.024-26.624 0-49.664-15.36-60.416-39.936-12.288-29.184-3.072-60.928 23.04-79.36l24.064-16.896c2.048-1.024 3.072-3.072 3.072-5.12s-1.024-4.096-3.072-5.632l-24.064-16.896c-25.6-17.92-34.816-49.664-23.04-78.848 10.24-25.088 33.28-40.96 59.904-40.96 4.096 0 8.192 0.512 12.288 1.024l28.672 5.12h1.536c2.048 0 4.096-1.536 4.608-2.048 0.512-0.512 2.048-2.56 1.536-5.632V564.736l-4.608-28.16c-5.632-30.72 10.24-59.904 38.912-72.192 8.704-3.584 17.408-5.632 26.112-5.632 20.992 0 40.448 10.24 53.248 28.16l16.896 24.064c1.024 2.048 3.072 3.072 5.12 3.072s4.096-1.024 5.632-3.072l16.896-24.064c12.288-17.92 31.744-28.16 52.736-28.16 8.704 0 17.408 2.048 26.112 5.632 28.672 11.776 44.544 40.96 39.424 72.192l-3.072 28.16c-0.512 2.56 0 4.608 2.048 6.656 0.512 0.512 2.048 2.048 5.12 2.048h1.024l28.672-5.12c4.096-0.512 8.192-1.024 12.288-1.024 27.136 0 50.176 15.36 60.416 39.936 12.288 29.184 3.072 60.928-23.04 79.36l-24.064 16.896c-2.048 1.024-3.072 3.072-3.072 5.12s1.024 4.096 3.072 5.632l24.064 16.896c26.624 18.432 35.84 50.688 23.552 79.872-10.752 24.576-33.28 39.424-59.392 39.424-4.608 0-8.704-0.512-13.312-1.024l-28.16-5.12h-1.536c-2.048 0-4.096 1.536-4.608 2.048-0.512 0.512-2.048 2.56-1.536 5.632V853.504l4.608 28.16c5.632 31.232-10.24 59.904-38.912 72.192-9.216 4.096-17.92 6.144-26.624 6.144z m-75.264-114.688c22.016 0 41.984 10.752 53.76 28.672l16.896 24.064c1.536 2.56 3.584 3.072 4.608 3.072 1.024 0 2.56-0.512 3.584-0.512 3.584-1.536 4.608-3.584 3.584-7.68l-4.608-28.672c-4.096-20.992 2.56-42.496 17.408-57.856 12.288-12.288 29.696-19.968 47.616-19.968 3.584 0 7.168 0.512 10.752 1.024l28.672 5.12h2.048c1.024 0 3.584 0 5.12-3.072 1.024-4.096 1.024-6.144-2.56-9.216l-24.064-16.896c-17.92-12.288-28.16-32.768-28.16-54.272 0-22.016 10.752-41.984 28.672-53.76l24.064-16.896c3.584-2.56 3.584-5.632 2.56-7.68v-0.512c-1.536-3.584-3.584-4.096-5.632-4.096h-2.048l-28.672 5.12c-4.096 0.512-8.192 1.024-12.288 1.024-16.896 0-33.28-6.656-45.568-18.432-15.872-15.872-23.04-37.888-18.944-58.88l4.608-28.672c0.512-4.096-0.512-6.144-4.096-7.68-1.024-0.512-2.048-0.512-3.072-0.512-1.536 0-3.072 1.024-4.608 3.072l-16.896 24.064c-12.288 17.92-32.768 28.16-54.272 28.16-22.016 0-41.984-10.752-53.76-28.672l-16.896-24.064c-2.048-2.56-3.584-2.56-5.12-2.56-1.024 0-2.56 0.512-3.072 0.512-4.096 2.048-4.096 4.608-3.584 7.168l4.608 28.672c4.096 20.992-2.56 42.496-17.408 57.856-12.288 12.288-29.696 19.968-47.616 19.968-3.584 0-7.168-0.512-10.752-1.024l-28.672-5.12h-1.536c-2.56 0-4.608 1.536-5.632 4.608-2.048 4.608 1.024 6.656 2.048 7.68l24.064 16.896c17.92 12.288 28.16 32.768 28.16 54.272 0 22.016-10.752 41.984-28.672 53.76l-24.064 16.896c-3.584 2.56-3.584 5.632-2.56 7.68v0.512c1.536 3.584 3.584 4.096 5.632 4.096h2.048l28.672-5.12c4.096-0.512 8.192-1.024 12.288-1.024 16.896 0 33.28 6.656 45.568 18.432 15.872 15.872 23.04 37.888 18.944 58.88l-4.608 28.672c-1.024 5.12 2.56 6.656 3.584 7.68l0.512 0.512c1.024 0.512 2.048 0.512 3.072 0.512 1.536 0 3.072-1.024 4.608-3.072l16.896-24.064c12.8-17.92 33.28-28.672 54.784-28.672zM467.968 501.76c-97.792 0.512-199.168 52.224-279.552 142.336-71.168 79.36-114.688 186.368-123.392 282.624-1.536 18.432 13.312 34.304 32.256 34.304 16.896 0 30.72-12.8 31.744-29.696 16.384-180.736 178.688-365.056 338.944-365.568V501.76z" p-id="3292"></path><path d="M706.56 595.968c-62.464 0-113.664 51.2-113.664 114.176s51.2 114.176 113.664 114.176 113.664-51.2 113.664-114.176-51.2-114.176-113.664-114.176z m0 171.52c-31.232 0-56.832-25.6-56.832-56.832s25.6-56.832 56.832-56.832 56.832 25.6 56.832 56.832-25.6 56.832-56.832 56.832z" p-id="3293"></path></svg>